<?xml version="1.0"?>
<svg xmlns="http://www.w3.org/2000/svg" xmlns:lc="http://www.librecad.org" xmlns:xlink="http://www.w3.org/1999/xlink" width="160.02494635mm" height="100mm" viewBox="0 0 160.02494635 100">
    <g lc:layername="0" lc:is_locked="false" lc:is_construction="false" fill="none" stroke="black" stroke-width="1">
        <line x1="60.01247318" y1="93" x2="61.01247318" y2="93"/>
        <path d="M130.01247318,90 L80.01247318,100 L30.01247318,90 A27.03847974,27.03847974 0 0,0 10.01247318,94 A31.67913984,31.67913984 0 0,1 0.01247318,70 L0.01247318,10 L80.01247318,90 L160.01247318,0 L160.01247318,70 A31.67913984,31.67913984 0 0,1 150.01247318,94 A27.03847974,27.03847974 0 0,0 130.01247318,90 "/>
        <path d="M10.01247318,85 L20.01247318,40 L29.01247318,85 L10.01247318,85 Z "/>
        <path d="M45.01247318,62 L35.01247318,87 L55.01247318,87 L45.01247318,62 Z "/>
        <path d="M61.01247318,93 L73.01247318,93 L64.01247318,80 L60.01247318,93 "/>
    </g>
</svg>
