<?xml version="1.0"?>
<svg xmlns="http://www.w3.org/2000/svg" xmlns:lc="http://www.librecad.org" xmlns:xlink="http://www.w3.org/1999/xlink" width="160.02494635mm" height="150mm" viewBox="0 0 160.02494635 150">
    <g lc:layername="0" lc:is_locked="false" lc:is_construction="false" fill="none" stroke="black" stroke-width="1">
        <path d="M80.01247318,148.76603728 L129.77517265,138.81349738 A28.16144414,28.16144414 0 0,1 150.01247318,142.5 A31.54617829,31.54617829 0 0,0 159.20247318,120 L159.20247318,0 L160.01247318,0 L160.01247318,120 A31.67913984,31.67913984 0 0,1 150.01247318,144 A27.03847974,27.03847974 0 0,0 130.01247318,140 L80.01247318,150 L30.01247318,140 A27.03847974,27.03847974 0 0,0 10.01247318,144 A31.67913984,31.67913984 0 0,1 0.01247318,120 L0.01247318,0 L0.82247318,0 L0.82247318,120 A31.54617829,31.54617829 0 0,0 10.01247318,142.5 A28.16144414,28.16144414 0 0,1 30.2497737,138.81349738 L80.01247318,148.76603728 Z "/>
    </g>
</svg>
