<?xml version="1.0"?>
<svg xmlns="http://www.w3.org/2000/svg" xmlns:lc="http://www.librecad.org" xmlns:xlink="http://www.w3.org/1999/xlink" width="160.02494635mm" height="150mm" viewBox="0 0 160.02494635 150">
    <g lc:layername="0" lc:is_locked="false" lc:is_construction="false" fill="none" stroke="black" stroke-width="1">
        <path d="M80.01247318,0 L30.01247318,10 A27.03847974,27.03847974 0 0,1 10.01247318,6 A31.67913984,31.67913984 0 0,0 0.01247318,30 L0.01247318,150 L3.01247318,150 L0.71247318,147 L0.72247318,30 A31.59548523,31.59548523 0 0,1 10.01247318,7.5 A28.16144414,28.16144414 0 0,0 30.2497737,11.18650262 L80.01247318,1.23396272 L129.77517265,11.18650262 A28.16144414,28.16144414 0 0,0 150.01247318,7.5 A31.59548523,31.59548523 0 0,1 159.30247318,30 L159.31247318,147 L157.01247318,150 L160.01247318,150 L160.01247318,30 A31.67913984,31.67913984 0 0,0 150.01247318,6 A27.03847974,27.03847974 0 0,1 130.01247318,10 L80.01247318,0 Z "/>
    </g>
</svg>
