<?xml version="1.0"?>
<svg xmlns="http://www.w3.org/2000/svg" xmlns:lc="http://www.librecad.org" xmlns:xlink="http://www.w3.org/1999/xlink" width="160.02494635mm" height="150mm" viewBox="0 0 160.02494635 150">
    <g lc:layername="0" lc:is_locked="false" lc:is_construction="false" fill="none" stroke="black" stroke-width="1">
        <path d="M1.02277988,29.69199313 A31.59548523,31.59548523 0 0,1 10.0143577,7.80116586 A28.16144414,28.16144414 0 0,0 30.2497737,11.48650262 L77.04436906,2.12758355 L79.01247318,10 L81.01247318,10 L82.98057729,2.12758355 L129.77517265,11.48650262 A28.16144414,28.16144414 0 0,0 150.01058865,7.80116586 A31.59548523,31.59548523 0 0,1 159.00216648,29.69199313 L159.30247318,30 L159.31247318,147 L155.01247318,150 L160.01247318,150 L160.01247318,30 A31.67913984,31.67913984 0 0,0 150.01247318,6 A27.03847974,27.03847974 0 0,1 130.01247318,10 L80.01247318,0 L30.01247318,10 A27.03847974,27.03847974 0 0,1 10.01247318,6 A31.67913984,31.67913984 0 0,0 0.01247318,30 L0.01247318,150 L5.01247318,150 L0.71247318,147 L0.72247318,30 L1.02277988,29.69199313 Z "/>
    </g>
</svg>
