<?xml version="1.0"?>
<svg xmlns="http://www.w3.org/2000/svg" xmlns:lc="http://www.librecad.org" xmlns:xlink="http://www.w3.org/1999/xlink" width="156.82444743mm" height="147mm" viewBox="0 0 156.82444743 147">
    <g lc:layername="0" lc:is_locked="false" lc:is_construction="false" fill="none" stroke="black" stroke-width="1">
        <path d="M127.1796692,11.25677257 L81.32096574,2.08503187 L79.41222371,10 L77.41222371,10 L75.50348168,2.08503187 L29.64477823,11.25677257 A27.59821526,27.59821526 0 0,1 9.81407055,7.64514254 A30.96357552,30.96357552 0 0,0 1.00232428,29.09815326 L0.81222371,29.4 L0.81222371,144 L4.91222371,147 L0.01222371,147 L0.01222371,29.4 A31.04555705,31.04555705 0 0,1 9.81222371,5.88 A26.49771015,26.49771015 0 0,0 29.41222371,9.8 L78.41222371,0 L127.41222371,9.8 A26.49771015,26.49771015 0 0,0 147.01222371,5.88 A31.04555705,31.04555705 0 0,1 156.81222371,29.4 L156.81222371,147 L151.81222371,147 L156.01222371,144 L156.01222371,29.4 L155.82212315,29.09815326 A30.96357552,30.96357552 0 0,0 147.01037688,7.64514254 A27.59821526,27.59821526 0 0,1 127.1796692,11.25677257 Z "/>
    </g>
</svg>
