<?xml version="1.0"?>
<svg xmlns="http://www.w3.org/2000/svg" xmlns:lc="http://www.librecad.org" xmlns:xlink="http://www.w3.org/1999/xlink" width="152.02369904mm" height="142.5mm" viewBox="0 0 152.02369904 142.5">
    <g lc:layername="0" lc:is_locked="false" lc:is_construction="false" fill="none" stroke="black" stroke-width="1">
        <path d="M142.51184952,5.7 A30.09518285,30.09518285 0 0,1 152.01184952,28.5 L152.01184952,142.5 L147.01184952,142.5 L151.21184952,139.5 L151.21184952,28.5 L151.05205815,28.20739347 A30.01571097,30.01571097 0 0,0 142.51005922,7.41110757 A26.75337194,26.75337194 0 0,1 123.28641402,10.91217749 L78.83154843,2.02120437 L77.01184952,9.5 L75.01184952,9.5 L73.19215061,2.02120437 L28.73728502,10.91217749 A26.75337194,26.75337194 0 0,1 9.51363982,7.41110757 A30.01571097,30.01571097 0 0,0 0.97164088,28.20739347 L0.81184952,28.5 L0.81184952,139.5 L5.01184952,142.5 L0.01184952,142.5 L0.01184952,28.5 A30.09518285,30.09518285 0 0,1 9.51184952,5.7 A25.68655575,25.68655575 0 0,0 28.51184952,9.5 L76.01184952,0 L123.51184952,9.5 A25.68655575,25.68655575 0 0,0 142.51184952,5.7 Z "/>
    </g>
</svg>
