<?xml version="1.0"?>
<svg xmlns="http://www.w3.org/2000/svg" xmlns:lc="http://www.librecad.org" xmlns:xlink="http://www.w3.org/1999/xlink" width="120.01870977mm" height="112.5mm" viewBox="0 0 120.01870977 112.5">
    <g lc:layername="0" lc:is_locked="false" lc:is_construction="false" fill="none" stroke="black" stroke-width="1">
        <path d="M0.00935488,22.5 L0.00935488,112.5 L5.00935488,112.5 L0.80935488,109.5 L0.80935488,22.5 L1.00935488,22.3 A23.19225734,23.19225734 0 0,1 7.72076262,6.2774709 A21.03659878,21.03659878 0 0,0 22.83661837,9.03041746 L57.79218111,2.03930491 L59.00935488,10.5 L61.00935488,10.5 L62.22652866,2.03930491 L97.18209139,9.03041746 A21.03659878,21.03659878 0 0,0 112.29794714,6.2774709 A23.19225734,23.19225734 0 0,1 119.00935488,22.3 L119.20935488,22.5 L119.20935488,109.5 L115.00935488,112.5 L120.00935488,112.5 L120.00935488,22.5 A23.75935488,23.75935488 0 0,0 112.50935488,4.5 A20.27885981,20.27885981 0 0,1 97.50935488,7.5 L60.00935488,0 L22.50935488,7.5 A20.27885981,20.27885981 0 0,1 7.50935488,4.5 A23.75935488,23.75935488 0 0,0 0.00935488,22.5 Z "/>
    </g>
</svg>
