<?xml version="1.0"?>
<svg xmlns="http://www.w3.org/2000/svg" xmlns:lc="http://www.librecad.org" xmlns:xlink="http://www.w3.org/1999/xlink" width="80.01247318mm" height="75mm" viewBox="0 0 80.01247318 75">
    <g lc:layername="0" lc:is_locked="false" lc:is_construction="false" fill="none" stroke="black" stroke-width="1">
        <path d="M0.00623659,15 L0.00623659,75 L5.00623659,75 L0.80623659,72 L0.80623659,15 L1.00623659,14.8 A14.79082717,14.79082717 0 0,1 5.35716943,4.6115771 A13.93991485,13.93991485 0 0,0 15.37370035,6.4358188 L38.53702505,1.80315385 L39.00623659,12 L41.00623659,12 L41.47544812,1.80315385 L64.63877283,6.4358188 A13.93991485,13.93991485 0 0,0 74.65530375,4.6115771 A14.79082717,14.79082717 0 0,1 79.00623659,14.8 L79.20623659,15 L79.20623659,72 L75.00623659,75 L80.00623659,75 L80.00623659,15 A15.83956992,15.83956992 0 0,0 75.00623659,3 A13.51923987,13.51923987 0 0,1 65.00623659,5 L40.00623659,0 L15.00623659,5 A13.51923987,13.51923987 0 0,1 5.00623659,3 A15.83956992,15.83956992 0 0,0 0.00623659,15 Z "/>
    </g>
</svg>
