<?xml version="1.0"?>
<svg xmlns="http://www.w3.org/2000/svg" xmlns:lc="http://www.librecad.org" xmlns:xlink="http://www.w3.org/1999/xlink" width="6.40099785mm" height="6mm" viewBox="0 0 6.40099785 6">
    <g lc:layername="0" lc:is_locked="false" lc:is_construction="false" fill="none" stroke="black" stroke-width="1">
        <path d="M2.20049893,6 L0.80049893,4 L0.80049893,2 L0.96049893,1.84 A0.88701592,0.88701592 0 0,1 1.24049893,1.168 A0.75707743,0.75707743 0 0,0 1.80049893,1.28 L2.90049893,1 L3.10049893,1.7 L3.30049893,1.7 L3.50049893,1 L4.60049893,1.28 A0.75707743,0.75707743 0 0,0 5.16049893,1.168 A0.88701592,0.88701592 0 0,1 5.44049893,1.84 L5.60049893,2 L5.60049893,4 L4.20049893,6 L6.40049893,6 L6.40049893,1.2 A1.26716559,1.26716559 0 0,0 6.00049893,0.24 A1.08153919,1.08153919 0 0,1 5.20049893,0.4 L3.20049893,0 L1.20049893,0.4 A1.08153919,1.08153919 0 0,1 0.40049893,0.24 A1.26716559,1.26716559 0 0,0 0.00049893,1.2 L0.00049893,6 L2.20049893,6 Z "/>
    </g>
</svg>
